<svg width="41" height="42" viewBox="0 0 41 42" fill="none" xmlns="http://www.w3.org/2000/svg">
<g id="Flickr">
<g id="Group">
<path id="Vector" d="M21 6.5C28.7199 6.5 35 12.7804 35 20.5C35 28.2196 28.7199 34.5 21 34.5C13.2801 34.5 7 28.2196 7 20.5C7 12.7804 13.2801 6.5 21 6.5ZM21 33.4231C28.1257 33.4231 33.9231 27.6257 33.9231 20.5C33.9231 13.3743 28.1257 7.57692 21 7.57692C13.8743 7.57692 8.07692 13.3743 8.07692 20.5C8.07692 27.6257 13.8743 33.4231 21 33.4231Z" fill="#FFFFFE"/>
<path id="Vector_2" d="M16.1539 16.1923C18.5291 16.1923 20.4615 18.1248 20.4615 20.5C20.4615 22.8752 18.5291 24.8076 16.1539 24.8076C13.7787 24.8076 11.8462 22.8752 11.8462 20.5C11.8462 18.1248 13.7787 16.1923 16.1539 16.1923ZM16.1539 23.7307C17.9354 23.7307 19.3846 22.2815 19.3846 20.5C19.3846 18.7184 17.9354 17.2692 16.1539 17.2692C14.3723 17.2692 12.9231 18.7184 12.9231 20.5C12.9231 22.2815 14.3723 23.7307 16.1539 23.7307Z" fill="#FFFFFE"/>
<path id="Vector_3" d="M26.3846 16.1923C28.7599 16.1923 30.6923 18.1248 30.6923 20.5C30.6923 22.8752 28.7599 24.8076 26.3846 24.8076C24.0094 24.8076 22.0769 22.8752 22.0769 20.5C22.0769 18.1248 24.0094 16.1923 26.3846 16.1923ZM26.3846 23.7307C28.1662 23.7307 29.6154 22.2815 29.6154 20.5C29.6154 18.7184 28.1662 17.2692 26.3846 17.2692C24.6031 17.2692 23.1539 18.7184 23.1539 20.5C23.1539 22.2815 24.6031 23.7307 26.3846 23.7307Z" fill="#FFFFFE"/>
</g>
<circle id="Ellipse 5" cx="20.5" cy="21" r="20" stroke="white"/>
</g>
</svg>
