<svg width="41" height="42" viewBox="0 0 41 42" fill="none" xmlns="http://www.w3.org/2000/svg">
<g id="Instagram">
<g id="Group">
<path id="Vector" d="M20.6533 7.5C16.9453 7.5 16.4803 7.51572 15.0241 7.58216C13.5708 7.6485 12.5783 7.87927 11.7098 8.21681C10.812 8.56573 10.0506 9.03258 9.29155 9.7916C8.53252 10.5506 8.06567 11.312 7.71675 12.2099C7.37922 13.0783 7.14845 14.0708 7.08211 15.5241C7.01566 16.9803 7 17.4453 7 21.1533C7 24.8613 7.01566 25.3263 7.08211 26.7825C7.14845 28.2358 7.37922 29.2283 7.71675 30.0967C8.06567 30.9945 8.53252 31.7559 9.29155 32.515C10.0506 33.274 10.812 33.7409 11.7098 34.0898C12.5783 34.4273 13.5708 34.6581 15.0241 34.7244C16.4803 34.7909 16.9453 34.8066 20.6533 34.8066C24.3613 34.8066 24.8263 34.7909 26.2825 34.7244C27.7358 34.6581 28.7283 34.4273 29.5967 34.0898C30.4945 33.7409 31.2559 33.274 32.015 32.515C32.774 31.7559 33.2409 30.9945 33.5898 30.0967C33.9273 29.2283 34.1581 28.2358 34.2244 26.7825C34.2909 25.3263 34.3066 24.8613 34.3066 21.1533C34.3066 17.4453 34.2909 16.9803 34.2244 15.5241C34.1581 14.0708 33.9273 13.0783 33.5898 12.2099C33.2409 11.312 32.774 10.5506 32.015 9.7916C31.2559 9.03258 30.4945 8.56573 29.5967 8.21681C28.7283 7.87927 27.7358 7.6485 26.2825 7.58216C24.8263 7.51572 24.3613 7.5 20.6533 7.5ZM20.6533 9.9601C24.2989 9.9601 24.7307 9.97398 26.1704 10.0397C27.5016 10.1004 28.2245 10.3228 28.7056 10.5098C29.3429 10.7574 29.7977 11.0534 30.2755 11.5311C30.7533 12.0088 31.0491 12.4637 31.2968 13.101C31.4838 13.5821 31.7062 14.305 31.7669 15.6362C31.8326 17.0759 31.8465 17.5077 31.8465 21.1533C31.8465 24.7989 31.8326 25.2307 31.7669 26.6704C31.7062 28.0016 31.4838 28.7245 31.2968 29.2056C31.0491 29.8429 30.7533 30.2977 30.2755 30.7755C29.7977 31.2533 29.3429 31.5491 28.7056 31.7968C28.2245 31.9838 27.5016 32.2062 26.1704 32.2669C24.7309 32.3326 24.2991 32.3465 20.6533 32.3465C17.0074 32.3465 16.5757 32.3326 15.1362 32.2669C13.805 32.2062 13.0821 31.9838 12.601 31.7968C11.9637 31.5491 11.5088 31.2533 11.031 30.7755C10.5533 30.2977 10.2574 29.8429 10.0098 29.2056C9.82279 28.7245 9.60036 28.0016 9.53961 26.6704C9.47392 25.2307 9.46005 24.7989 9.46005 21.1533C9.46005 17.5077 9.47392 17.0759 9.53961 15.6362C9.60036 14.305 9.82279 13.5821 10.0098 13.101C10.2574 12.4637 10.5533 12.0088 11.031 11.5311C11.5088 11.0534 11.9637 10.7574 12.601 10.5098C13.0821 10.3228 13.805 10.1004 15.1362 10.0397C16.5759 9.97398 17.0077 9.9601 20.6533 9.9601Z" fill="#FFFFFE"/>
<path id="Vector_2" d="M20.6533 25.7043C18.1398 25.7043 16.1022 23.6667 16.1022 21.1533C16.1022 18.6397 18.1398 16.6021 20.6533 16.6021C23.1668 16.6021 25.2044 18.6397 25.2044 21.1533C25.2044 23.6667 23.1668 25.7043 20.6533 25.7043ZM20.6533 14.1421C16.7811 14.1421 13.6422 17.2811 13.6422 21.1533C13.6422 25.0254 16.7811 28.1644 20.6533 28.1644C24.5255 28.1644 27.6644 25.0254 27.6644 21.1533C27.6644 17.2811 24.5255 14.1421 20.6533 14.1421Z" fill="#FFFFFE"/>
<path id="Vector_3" d="M29.5799 13.8652C29.5799 14.77 28.8463 15.5035 27.9414 15.5035C27.0366 15.5035 26.3031 14.77 26.3031 13.8652C26.3031 12.9603 27.0366 12.2268 27.9414 12.2268C28.8463 12.2268 29.5799 12.9603 29.5799 13.8652Z" fill="#FFFFFE"/>
</g>
<circle id="Ellipse 3" cx="20.5" cy="21" r="20" stroke="white"/>
</g>
</svg>
