<svg width="32" height="32" viewBox="0 0 32 32" fill="none" xmlns="http://www.w3.org/2000/svg">
<g id="Frame">
<g id="Layer 45">
<path id="Vector" d="M19.47 31C19.0983 31.0035 18.733 30.9034 18.4151 30.7108C18.0971 30.5183 17.8391 30.241 17.67 29.91L13.67 22.34C13.554 22.106 13.5341 21.8359 13.6146 21.5875C13.6951 21.339 13.8696 21.1319 14.1008 21.0105C14.332 20.889 14.6015 20.8628 14.8517 20.9374C15.102 21.0121 15.3131 21.1817 15.44 21.41L19.44 28.98L29 3.05996L2.99999 12.49L12.8 17.75L21.12 9.42996C21.3083 9.24165 21.5637 9.13587 21.83 9.13587C22.0963 9.13587 22.3517 9.24165 22.54 9.42996C22.7283 9.61826 22.8341 9.87366 22.8341 10.14C22.8341 10.4063 22.7283 10.6617 22.54 10.85L13.69 19.69C13.5395 19.8406 13.3449 19.9393 13.1345 19.9717C12.9241 20.0041 12.7088 19.9684 12.52 19.87L2.08999 14.33C1.72492 14.1591 1.41999 13.8819 1.21518 13.5347C1.01037 13.1876 0.915249 12.7866 0.942277 12.3844C0.969305 11.9823 1.11722 11.5976 1.36664 11.281C1.61606 10.9643 1.95534 10.7304 2.33999 10.61L28.25 1.12996C28.6165 0.975398 29.0207 0.933623 29.4111 1.00997C29.8014 1.08632 30.1601 1.27732 30.4414 1.55857C30.7226 1.83981 30.9136 2.19853 30.99 2.58888C31.0663 2.97923 31.0246 3.38347 30.87 3.74996L21.39 29.66C21.2597 30.0347 21.0208 30.3622 20.7039 30.6008C20.3869 30.8394 20.0061 30.9783 19.61 31H19.47Z" fill="#00EBC7"/>
</g>
</g>
</svg>
