<svg width="41" height="42" viewBox="0 0 41 42" fill="none" xmlns="http://www.w3.org/2000/svg">
<g id="Youtube">
<g id="youtube">
<g id="Group">
<path id="Vector" d="M21.1787 12.3329C24.9189 12.3329 27.9775 12.3959 30.8069 12.5219H30.847H30.8871C32.2102 12.5219 33.2928 13.782 33.2928 15.3342V15.3972L33.2985 15.4602C33.4302 17.4076 33.4932 19.4294 33.4932 21.4685C33.499 23.5075 33.4302 25.5294 33.2985 27.4768L33.2928 27.5398V27.6028C33.2928 28.3933 33.0236 29.1264 32.5253 29.6705C32.0785 30.1631 31.4943 30.438 30.8871 30.438H30.8413H30.7955C27.7656 30.5812 24.5638 30.6557 21.2646 30.6557C21.0642 30.6557 20.858 30.6557 20.6575 30.6557C20.4513 30.6557 20.2451 30.6557 20.0389 30.6557C16.7283 30.6557 13.5266 30.5812 10.5195 30.4438H10.4737H10.4279C9.82075 30.4438 9.24225 30.1688 8.79549 29.6763C8.30291 29.1321 8.02799 28.399 8.02799 27.6086V27.5456L8.02226 27.4826C7.88479 25.5294 7.82179 23.5075 7.83324 21.4857V21.48V21.4742C7.82752 19.4524 7.89052 17.4362 8.02226 15.4831L8.02799 15.4201V15.3571C8.02799 13.7991 9.10479 12.5333 10.4279 12.5333H10.468H10.5081C13.3433 12.4016 16.4018 12.3443 20.142 12.3443H20.6575H21.1787M21.1787 10.5C21.0069 10.5 20.8351 10.5 20.6632 10.5C20.4914 10.5 20.3196 10.5 20.1477 10.5C16.8486 10.5 13.6067 10.5458 10.4336 10.689C8.09672 10.689 6.20086 12.7682 6.20086 15.3456C6.05767 17.3961 5.99466 19.4352 6.00039 21.48C5.99466 23.5247 6.05194 25.5638 6.19513 27.6086C6.19513 30.186 8.09099 32.2823 10.4279 32.2823C13.5666 32.4313 16.7684 32.5 20.0389 32.5C20.2451 32.5 20.457 32.5 20.6632 32.5C20.8694 32.5 21.0756 32.5 21.2761 32.5C24.5466 32.5 27.7484 32.4313 30.8929 32.2823C33.2355 32.2823 35.1313 30.186 35.1313 27.6086C35.2688 25.5638 35.3318 23.519 35.3261 21.4742C35.3318 19.4294 35.2688 17.3904 35.1313 15.3399C35.1313 12.7624 33.2355 10.6947 30.8929 10.6947C27.7197 10.5458 24.4836 10.5 21.1787 10.5Z" fill="#FFFFFE"/>
</g>
<g id="Group_2">
<path id="Vector_2" d="M17.8567 27.0986V15.8495L26.1618 21.4741L17.8567 27.0986Z" fill="#FFFFFE"/>
</g>
</g>
<circle id="Ellipse 4" cx="20.5" cy="21" r="20" stroke="white"/>
</g>
</svg>
